<mxfile host="app.diagrams.net" agent="Mozilla/5.0 (Windows NT 10.0; Win64; x64; rv:135.0) Gecko/20100101 Firefox/135.0" version="26.0.7">
  <diagram name="第 1 页" id="-CaptMrs8DEF8N4rP-fB">
    <mxGraphModel dx="734" dy="745" grid="1" gridSize="10" guides="1" tooltips="1" connect="1" arrows="1" fold="1" page="1" pageScale="1" pageWidth="827" pageHeight="1169" math="0" shadow="0">
      <root>
        <mxCell id="0" />
        <mxCell id="1" parent="0" />
        <mxCell id="kJd0R0YMK0jCgoi8NGdp-3" value="" style="edgeStyle=orthogonalEdgeStyle;rounded=0;orthogonalLoop=1;jettySize=auto;html=1;" edge="1" parent="1" source="kJd0R0YMK0jCgoi8NGdp-1" target="kJd0R0YMK0jCgoi8NGdp-2">
          <mxGeometry relative="1" as="geometry" />
        </mxCell>
        <mxCell id="kJd0R0YMK0jCgoi8NGdp-1" value="&lt;font&gt;数据库自治平台生成健康度报告pdf&lt;/font&gt;" style="rounded=0;whiteSpace=wrap;html=1;" vertex="1" parent="1">
          <mxGeometry x="110" y="250" width="100" height="60" as="geometry" />
        </mxCell>
        <mxCell id="kJd0R0YMK0jCgoi8NGdp-5" value="" style="edgeStyle=orthogonalEdgeStyle;rounded=0;orthogonalLoop=1;jettySize=auto;html=1;" edge="1" parent="1" source="kJd0R0YMK0jCgoi8NGdp-2" target="kJd0R0YMK0jCgoi8NGdp-4">
          <mxGeometry relative="1" as="geometry" />
        </mxCell>
        <mxCell id="kJd0R0YMK0jCgoi8NGdp-2" value="云鸽创建派发工单" style="rounded=0;whiteSpace=wrap;html=1;" vertex="1" parent="1">
          <mxGeometry x="260" y="250" width="80" height="60" as="geometry" />
        </mxCell>
        <mxCell id="kJd0R0YMK0jCgoi8NGdp-7" value="" style="edgeStyle=orthogonalEdgeStyle;rounded=0;orthogonalLoop=1;jettySize=auto;html=1;" edge="1" parent="1" source="kJd0R0YMK0jCgoi8NGdp-4" target="kJd0R0YMK0jCgoi8NGdp-6">
          <mxGeometry relative="1" as="geometry" />
        </mxCell>
        <mxCell id="kJd0R0YMK0jCgoi8NGdp-4" value="相关人员接收处理工单" style="rounded=0;whiteSpace=wrap;html=1;" vertex="1" parent="1">
          <mxGeometry x="390" y="250" width="80" height="60" as="geometry" />
        </mxCell>
        <mxCell id="kJd0R0YMK0jCgoi8NGdp-6" value="&lt;div&gt;关单，&lt;/div&gt;&lt;div&gt;流程结束&lt;/div&gt;" style="rounded=0;whiteSpace=wrap;html=1;" vertex="1" parent="1">
          <mxGeometry x="510" y="250" width="80" height="60" as="geometry" />
        </mxCell>
      </root>
    </mxGraphModel>
  </diagram>
</mxfile>
